<svg width="17" height="8" viewBox="0 0 17 8" fill="none" xmlns="http://www.w3.org/2000/svg">
<path d="M2.737 11H4.004V0.92H2.737L0.84 2.054V3.447L2.737 2.299V11ZM6.33095 11H7.70295V9.628H6.33095V11ZM13.2824 11.21C13.9357 11.21 14.5191 11.063 15.0324 10.769C15.5457 10.475 15.9494 10.0713 16.2434 9.558C16.5374 9.04467 16.6844 8.46133 16.6844 7.808V4.112C16.6844 3.45867 16.5374 2.87533 16.2434 2.362C15.9494 1.84867 15.5457 1.445 15.0324 1.151C14.5191 0.857 13.9357 0.71 13.2824 0.71C12.6291 0.71 12.0457 0.857 11.5324 1.151C11.0191 1.445 10.6154 1.84867 10.3214 2.362C10.0274 2.87533 9.88039 3.45867 9.88039 4.112V7.808C9.88039 8.46133 10.0274 9.04467 10.3214 9.558C10.6154 10.0713 11.0191 10.475 11.5324 10.769C12.0457 11.063 12.6291 11.21 13.2824 11.21ZM13.2824 10.013C12.8904 10.013 12.5311 9.91733 12.2044 9.726C11.8824 9.53467 11.6257 9.278 11.4344 8.956C11.2431 8.62933 11.1474 8.27 11.1474 7.878V4.035C11.1474 3.63833 11.2431 3.279 11.4344 2.957C11.6257 2.635 11.8824 2.37833 12.2044 2.187C12.5311 1.99567 12.8904 1.9 13.2824 1.9C13.6791 1.9 14.0384 1.99567 14.3604 2.187C14.6824 2.37833 14.9391 2.635 15.1304 2.957C15.3217 3.279 15.4174 3.63833 15.4174 4.035V7.878C15.4174 8.27 15.3217 8.62933 15.1304 8.956C14.9391 9.278 14.6824 9.53467 14.3604 9.726C14.0384 9.91733 13.6791 10.013 13.2824 10.013Z" fill="#504F54"/>
</svg>
