<svg width="12" height="12" viewBox="0 0 12 12" fill="none" xmlns="http://www.w3.org/2000/svg">
<path d="M5.90016 5.45C4.76516 5.155 4.40016 4.85 4.40016 4.375C4.40016 3.83 4.90516 3.45 5.75016 3.45C6.64016 3.45 6.97016 3.875 7.00016 4.5H8.10516C8.07016 3.64 7.54516 2.85 6.50016 2.595V1.5H5.00016V2.58C4.03016 2.79 3.25016 3.42 3.25016 4.385C3.25016 5.54 4.20516 6.115 5.60016 6.45C6.85016 6.75 7.10016 7.19 7.10016 7.655C7.10016 8 6.85516 8.55 5.75016 8.55C4.72016 8.55 4.31516 8.09 4.26016 7.5H3.16016C3.22016 8.595 4.04016 9.21 5.00016 9.415V10.5H6.50016V9.425C7.47516 9.24 8.25016 8.675 8.25016 7.65C8.25016 6.23 7.03516 5.745 5.90016 5.45Z" fill="#00A46C"/>
</svg>
