<svg width="42" height="42" viewBox="0 0 42 42" fill="none" xmlns="http://www.w3.org/2000/svg">
<rect width="42" height="42" rx="21" fill="#1F47F5" fill-opacity="0.1"/>
<path d="M20.7659 27.216C21.4859 27.216 22.1365 27.0533 22.7179 26.728C23.2992 26.4027 23.7605 25.9547 24.1019 25.384C24.4432 24.808 24.6139 24.1547 24.6139 23.424C24.6139 22.8 24.4912 22.2293 24.2459 21.712C24.0059 21.1947 23.6592 20.7707 23.2059 20.44C22.7579 20.104 22.2219 19.8933 21.5979 19.808L24.4459 17.072V15.48H17.5179V17.072H22.3979L18.8779 20.184L19.6619 21.504C20.0192 21.312 20.3819 21.216 20.7499 21.216C21.3899 21.216 21.9072 21.424 22.3019 21.84C22.7019 22.256 22.9019 22.784 22.9019 23.424C22.9019 24.0587 22.7045 24.584 22.3099 25C21.9152 25.4107 21.4005 25.6213 20.7659 25.632C20.2965 25.6373 19.8699 25.5093 19.4859 25.248C19.1019 24.9867 18.8325 24.6053 18.6779 24.104L17.0619 24.552C17.2272 25.096 17.4912 25.568 17.8539 25.968C18.2219 26.368 18.6565 26.6773 19.1579 26.896C19.6592 27.1093 20.1952 27.216 20.7659 27.216Z" fill="#1F47F5"/>
</svg>
