<svg width="12" height="12" viewBox="0 0 12 12" fill="none" xmlns="http://www.w3.org/2000/svg">
<path fill-rule="evenodd" clip-rule="evenodd" d="M10.2788 1H1.72121C1.32288 1 1 1.32288 1 1.72121V10.2788C1 10.6771 1.32288 11 1.72121 11H10.2788C10.6771 11 11 10.6771 11 10.2788V1.72121C11 1.32288 10.6771 1 10.2788 1ZM4.54709 8.55856H3.32936V4.895H4.54709V8.55856ZM3.93828 4.39478H3.93034C3.52171 4.39478 3.25743 4.11348 3.25743 3.76192C3.25743 3.40242 3.5298 3.12891 3.94636 3.12891C4.36293 3.12891 4.61928 3.40242 4.62721 3.76192C4.62721 4.11348 4.36293 4.39478 3.93828 4.39478ZM8.93789 8.55857H7.72032V6.59866C7.72032 6.1061 7.544 5.77018 7.10341 5.77018C6.76703 5.77018 6.56668 5.99677 6.47864 6.21551C6.44644 6.29379 6.43858 6.40319 6.43858 6.51267V8.55857H5.22093C5.22093 8.55857 5.23688 5.23872 5.22093 4.89501H6.43858V5.41374C6.6004 5.1641 6.88994 4.80903 7.53599 4.80903C8.33716 4.80903 8.93789 5.33264 8.93789 6.45789V8.55857Z" fill="white"/>
</svg>
