<svg width="12" height="12" viewBox="0 0 12 12" fill="none" xmlns="http://www.w3.org/2000/svg">
<path d="M10.5001 3.75C10.7501 7.5 8.0001 10.5 4.5001 10.5C3.29414 10.5 2.08819 10.3384 1.14207 9.8853C0.925375 9.78155 1.01008 9.4925 1.2498 9.4766C2.41484 9.39935 3.37895 9.12115 4.0001 8.5C1.2919 7.59725 0.824745 4.24975 1.31124 2.5036C1.36836 2.29857 1.63493 2.2975 1.74237 2.48123C2.57311 3.90185 4.1527 4.69501 6.1324 4.51198C6.04675 4.27402 6.0001 4.01746 6.0001 3.75C6.0001 2.50736 7.00745 1.5 8.2501 1.5C9.0092 1.5 9.6805 1.87591 10.088 2.45173L10.9465 2.32908C11.1605 2.29852 11.3098 2.53543 11.1899 2.71523L10.5001 3.75Z" fill="white"/>
</svg>
