<svg width="16" height="15" viewBox="0 0 16 15" fill="none" xmlns="http://www.w3.org/2000/svg">
<path d="M7.99994 13.7498C5.47092 13.7513 3.19025 12.2285 2.22224 9.89207C1.25422 7.55564 1.78966 4.86611 3.57869 3.07855C5.15825 1.49899 7.46051 0.882105 9.61823 1.46026C11.776 2.03842 13.4613 3.72379 14.0395 5.88151C14.6176 8.03923 14.0008 10.3415 12.4212 11.9211C11.2509 13.0967 9.65879 13.7552 7.99994 13.7498ZM2.99994 7.6073C3.02952 10.3581 5.27564 12.5683 8.02653 12.5536C10.7774 12.5387 12.9997 10.3045 12.9997 7.55355C12.9997 4.80262 10.7774 2.56841 8.02653 2.55355C5.27564 2.53884 3.02952 4.74903 2.99994 7.4998V7.6073ZM6.38057 9.9998L5.49994 9.11855L7.11869 7.4998L5.49994 5.88105L6.38119 4.9998L7.99994 6.61855L9.61869 4.9998L10.4999 5.88105L8.88119 7.4998L10.4999 9.11855L9.61932 9.9998L7.99994 8.38105L6.38119 9.9998H6.38057Z" fill="#5F5F5F"/>
</svg>
