<svg width="18" height="16" viewBox="0 0 18 16" fill="none" xmlns="http://www.w3.org/2000/svg">
<path d="M7.33333 7.00016C9.17428 7.00016 10.6667 5.50778 10.6667 3.66683C10.6667 1.82588 9.17428 0.333496 7.33333 0.333496C5.49238 0.333496 4 1.82588 4 3.66683C4 5.50778 5.49238 7.00016 7.33333 7.00016Z" fill="#B6B4BA"/>
<path d="M7.62508 8.67518C5.35008 8.59185 0.666748 9.72518 0.666748 12.0002V13.6668H8.61675C6.55841 11.3668 7.59175 8.75852 7.62508 8.67518Z" fill="#B6B4BA"/>
<path d="M15.1917 12.0167C15.4917 11.525 15.6667 10.95 15.6667 10.3333C15.6667 8.49167 14.175 7 12.3333 7C10.4917 7 9 8.49167 9 10.3333C9 12.175 10.4917 13.6667 12.3333 13.6667C12.95 13.6667 13.525 13.4833 14.0167 13.1917L16.1583 15.3333L17.3333 14.1583L15.1917 12.0167ZM12.3333 12C11.4167 12 10.6667 11.25 10.6667 10.3333C10.6667 9.41667 11.4167 8.66667 12.3333 8.66667C13.25 8.66667 14 9.41667 14 10.3333C14 11.25 13.25 12 12.3333 12Z" fill="#B6B4BA"/>
</svg>
