<svg width="22" height="18" viewBox="0 0 22 18" fill="none" xmlns="http://www.w3.org/2000/svg">
<path d="M8 12C5.33 12 0 13.34 0 16V18H16V16C16 13.34 10.67 12 8 12Z" fill="#378DF7"/>
<path d="M21.1001 3.84C21.1101 3.73 21.1201 3.62 21.1201 3.5C21.1201 3.38 21.1101 3.27 21.0901 3.16L21.8301 2.58C21.9001 2.53 21.9101 2.43 21.8701 2.36L21.1701 1.15C21.1301 1.07 21.0301 1.05 20.9601 1.07L20.1001 1.42C19.9201 1.28 19.7201 1.17 19.5101 1.08L19.3801 0.15C19.3601 0.0600001 19.2901 0 19.2001 0H17.8001C17.7101 0 17.6401 0.0600001 17.6301 0.15L17.5001 1.08C17.2901 1.17 17.0901 1.29 16.9101 1.42L16.0401 1.07C15.9601 1.04 15.8701 1.07 15.8301 1.15L15.1301 2.36C15.0901 2.44 15.1001 2.53 15.1701 2.58L15.9101 3.16C15.8901 3.27 15.8801 3.39 15.8801 3.5C15.8801 3.61 15.8901 3.73 15.9101 3.84L15.1701 4.42C15.1001 4.47 15.0901 4.57 15.1301 4.64L15.8301 5.85C15.8701 5.93 15.9701 5.95 16.0401 5.93L16.9101 5.58C17.0901 5.72 17.2901 5.83 17.5001 5.92L17.6301 6.85C17.6401 6.94 17.7101 7 17.8001 7H19.2001C19.2901 7 19.3601 6.94 19.3701 6.85L19.5001 5.92C19.7101 5.83 19.9101 5.71 20.0901 5.58L20.9601 5.93C21.0401 5.96 21.1301 5.93 21.1701 5.85L21.8701 4.64C21.9101 4.56 21.9001 4.47 21.8301 4.42L21.1001 3.84ZM18.5001 4.75C17.8101 4.75 17.2501 4.19 17.2501 3.5C17.2501 2.81 17.8101 2.25 18.5001 2.25C19.1901 2.25 19.7501 2.81 19.7501 3.5C19.7501 4.19 19.1901 4.75 18.5001 4.75Z" fill="#378DF7"/>
<path d="M18.9199 8.68L18.4199 7.81C18.3899 7.75 18.3199 7.73 18.2699 7.75L17.6499 8C17.5199 7.9 17.3799 7.82 17.2299 7.76L17.1399 7.1C17.1199 7.04 17.0599 7 16.9999 7H15.9999C15.9399 7 15.8899 7.04 15.8799 7.11L15.7899 7.77C15.6399 7.83 15.4999 7.92 15.3699 8.01L14.7499 7.76C14.6899 7.74 14.6299 7.76 14.5999 7.82L14.0999 8.69C14.0699 8.75 14.0799 8.81 14.1299 8.85L14.6599 9.26C14.6499 9.34 14.6399 9.42 14.6399 9.5C14.6399 9.58 14.6499 9.67 14.6599 9.74L14.1299 10.15C14.0799 10.19 14.0699 10.26 14.0999 10.31L14.5999 11.18C14.6299 11.24 14.6999 11.26 14.7499 11.24L15.3699 10.99C15.4999 11.09 15.6399 11.17 15.7899 11.23L15.8799 11.89C15.8899 11.96 15.9399 12 15.9999 12H16.9999C17.0599 12 17.1199 11.96 17.1199 11.89L17.2099 11.23C17.3599 11.17 17.4999 11.08 17.6299 10.99L18.2499 11.24C18.3099 11.26 18.3699 11.24 18.3999 11.18L18.8999 10.31C18.9299 10.25 18.9199 10.19 18.8699 10.15L18.3499 9.74C18.3599 9.66 18.3699 9.58 18.3699 9.5C18.3699 9.42 18.3599 9.33 18.3499 9.26L18.8799 8.85C18.9299 8.81 18.9399 8.74 18.9199 8.68ZM16.4999 10.33C16.0399 10.33 15.6699 9.95 15.6699 9.5C15.6699 9.04 16.0499 8.67 16.4999 8.67C16.9499 8.67 17.3299 9.05 17.3299 9.5C17.3299 9.96 16.9599 10.33 16.4999 10.33Z" fill="#378DF7"/>
<path d="M3.74 6H12.27C12.54 6 12.76 5.78 12.76 5.51V5.49C12.76 5.22 12.54 5 12.27 5H12C12 3.52 11.19 2.25 10 1.55V2.5C10 2.78 9.78 3 9.5 3C9.22 3 9 2.78 9 2.5V1.14C8.68 1.06 8.35 1 8 1C7.65 1 7.32 1.06 7 1.14V2.5C7 2.78 6.78 3 6.5 3C6.22 3 6 2.78 6 2.5V1.55C4.81 2.25 4 3.52 4 5H3.74C3.47 5 3.25 5.22 3.25 5.49V5.52C3.25 5.78 3.47 6 3.74 6Z" fill="#378DF7"/>
<path d="M7.99989 10C9.85989 10 11.4099 8.72 11.8599 7H4.13989C4.58989 8.72 6.13989 10 7.99989 10Z" fill="#378DF7"/>
</svg>
