<svg width="94" height="12" viewBox="0 0 94 12" fill="none" xmlns="http://www.w3.org/2000/svg">
<path d="M0 9C0 4.02944 4.02944 0 9 0H85C89.9706 0 94 4.02944 94 9C94 13.9706 89.9706 18 85 18H9C4.02944 18 0 13.9706 0 9Z" fill="#14B13B" fill-opacity="0.1"/>
<path d="M8.2 13H9.285L9.81 11.375H12.765L13.3 13H14.385L12.045 5.8H10.54L8.2 13ZM10.13 10.395L11.28 6.845L12.445 10.395H10.13ZM17.592 13.15C18.172 13.15 18.6654 13.01 19.072 12.73C19.4787 12.45 19.7704 12.045 19.947 11.515L18.887 11.265C18.777 11.555 18.617 11.7783 18.407 11.935C18.2004 12.0883 17.9287 12.165 17.592 12.165C17.0987 12.165 16.7254 11.9933 16.472 11.65C16.222 11.3067 16.0954 10.8567 16.092 10.3C16.0954 9.76 16.217 9.315 16.457 8.965C16.7004 8.61167 17.0787 8.435 17.592 8.435C17.8954 8.435 18.1637 8.52 18.397 8.69C18.6337 8.85667 18.8037 9.09167 18.907 9.395L19.947 9.095C19.8137 8.58833 19.537 8.18833 19.117 7.895C18.7004 7.59833 18.197 7.45 17.607 7.45C17.0637 7.45 16.5954 7.57167 16.202 7.815C15.812 8.05833 15.512 8.395 15.302 8.825C15.092 9.25167 14.9854 9.74333 14.982 10.3C14.9854 10.8467 15.0887 11.335 15.292 11.765C15.4987 12.195 15.7954 12.5333 16.182 12.78C16.572 13.0267 17.042 13.15 17.592 13.15ZM24.0556 13V12.115C23.7023 12.1683 23.394 12.18 23.1306 12.15C22.8706 12.1167 22.6806 11.9983 22.5606 11.795C22.4973 11.685 22.4623 11.55 22.4556 11.39C22.4523 11.23 22.4506 11.0417 22.4506 10.825V8.44H24.0556V7.6H22.4506V6.1H21.4006V7.6H20.3656V8.44H21.4006V10.875C21.4006 11.1683 21.404 11.4317 21.4106 11.665C21.4206 11.895 21.484 12.1217 21.6006 12.345C21.734 12.595 21.929 12.7783 22.1856 12.895C22.4423 13.0117 22.734 13.075 23.0606 13.085C23.3873 13.095 23.719 13.0667 24.0556 13ZM25.2941 6.715H26.3391V5.7H25.2941V6.715ZM25.2941 13H26.3391V7.6H25.2941V13ZM29.3006 13H30.3606L32.3206 7.6H31.2656L29.8306 11.69L28.3956 7.6H27.3406L29.3006 13ZM35.4212 13.15C35.9445 13.15 36.4195 13.0183 36.8462 12.755C37.2728 12.4883 37.5912 12.1133 37.8012 11.63L36.7762 11.305C36.5028 11.8783 36.0345 12.165 35.3712 12.165C34.9178 12.165 34.5612 12.0283 34.3012 11.755C34.0412 11.4817 33.8895 11.095 33.8462 10.595H37.8712C37.9078 9.94833 37.8312 9.39 37.6412 8.92C37.4512 8.45 37.1628 8.08833 36.7762 7.835C36.3895 7.57833 35.9212 7.45 35.3712 7.45C34.8445 7.45 34.3828 7.56833 33.9862 7.805C33.5895 8.04167 33.2795 8.37667 33.0562 8.81C32.8362 9.24333 32.7262 9.755 32.7262 10.345C32.7262 10.9017 32.8378 11.3917 33.0612 11.815C33.2878 12.235 33.6028 12.5633 34.0062 12.8C34.4128 13.0333 34.8845 13.15 35.4212 13.15ZM35.4112 8.375C36.2278 8.375 36.6912 8.84333 36.8012 9.78H33.8712C33.9378 9.32333 34.0995 8.975 34.3562 8.735C34.6128 8.495 34.9645 8.375 35.4112 8.375ZM39.093 13H40.138V5.65H39.093V13ZM42.3695 15.4H43.3645L46.3445 7.6H45.2845L43.7595 11.66L42.1645 7.6H41.0745L43.2595 12.975L42.3695 15.4ZM49.2297 13H53.5347V12.015H50.2747V5.8H49.2297V13ZM56.7286 13.15C57.2653 13.15 57.7319 13.03 58.1286 12.79C58.5253 12.5467 58.8319 12.2117 59.0486 11.785C59.2686 11.355 59.3786 10.8583 59.3786 10.295C59.3786 9.73833 59.2703 9.24667 59.0536 8.82C58.8369 8.39 58.5303 8.055 58.1336 7.815C57.7369 7.57167 57.2686 7.45 56.7286 7.45C56.1986 7.45 55.7353 7.57 55.3386 7.81C54.9419 8.05 54.6336 8.38333 54.4136 8.81C54.1936 9.23667 54.0836 9.73167 54.0836 10.295C54.0836 10.8517 54.1919 11.345 54.4086 11.775C54.6253 12.205 54.9303 12.5417 55.3236 12.785C55.7203 13.0283 56.1886 13.15 56.7286 13.15ZM56.7286 12.165C56.2253 12.165 55.8436 11.9967 55.5836 11.66C55.3236 11.32 55.1936 10.865 55.1936 10.295C55.1936 9.745 55.3186 9.29833 55.5686 8.955C55.8186 8.60833 56.2053 8.435 56.7286 8.435C57.2386 8.435 57.6219 8.60333 57.8786 8.94C58.1386 9.27667 58.2686 9.72833 58.2686 10.295C58.2686 10.8483 58.1403 11.2983 57.8836 11.645C57.6303 11.9917 57.2453 12.165 56.7286 12.165ZM62.8223 13.15C63.359 13.15 63.8257 13.03 64.2223 12.79C64.619 12.5467 64.9257 12.2117 65.1423 11.785C65.3623 11.355 65.4723 10.8583 65.4723 10.295C65.4723 9.73833 65.364 9.24667 65.1473 8.82C64.9307 8.39 64.624 8.055 64.2273 7.815C63.8307 7.57167 63.3623 7.45 62.8223 7.45C62.2923 7.45 61.829 7.57 61.4323 7.81C61.0357 8.05 60.7273 8.38333 60.5073 8.81C60.2873 9.23667 60.1773 9.73167 60.1773 10.295C60.1773 10.8517 60.2857 11.345 60.5023 11.775C60.719 12.205 61.024 12.5417 61.4173 12.785C61.814 13.0283 62.2823 13.15 62.8223 13.15ZM62.8223 12.165C62.319 12.165 61.9373 11.9967 61.6773 11.66C61.4173 11.32 61.2873 10.865 61.2873 10.295C61.2873 9.745 61.4123 9.29833 61.6623 8.955C61.9123 8.60833 62.299 8.435 62.8223 8.435C63.3323 8.435 63.7157 8.60333 63.9723 8.94C64.2323 9.27667 64.3623 9.72833 64.3623 10.295C64.3623 10.8483 64.234 11.2983 63.9773 11.645C63.724 11.9917 63.339 12.165 62.8223 12.165ZM66.5661 13H67.6311V10.4L69.8911 13H71.3111L68.8411 10.3L71.0811 7.6H69.7511L67.6311 10.2V5.8H66.5711L66.5661 13ZM71.9152 6.715H72.9602V5.7H71.9152V6.715ZM71.9152 13H72.9602V7.6H71.9152V13ZM74.4567 13H75.5167V10.19C75.5167 9.76333 75.5784 9.42333 75.7017 9.17C75.8284 8.91333 75.9951 8.72833 76.2017 8.615C76.4084 8.50167 76.6367 8.445 76.8867 8.445C77.1734 8.445 77.4067 8.50333 77.5867 8.62C77.7667 8.73667 77.9051 8.89 78.0017 9.08C78.0984 9.27 78.1634 9.47667 78.1967 9.7C78.2334 9.92 78.2517 10.135 78.2517 10.345V13H79.3117V10C79.3117 9.83333 79.2967 9.64 79.2667 9.42C79.2367 9.2 79.1801 8.975 79.0967 8.745C79.0134 8.515 78.8917 8.30333 78.7317 8.11C78.5751 7.91333 78.3701 7.755 78.1167 7.635C77.8634 7.515 77.5501 7.455 77.1767 7.455C76.7867 7.455 76.4401 7.525 76.1367 7.665C75.8367 7.805 75.5884 7.99833 75.3917 8.245V7.6H74.4567V13ZM82.7591 13.15C83.0657 13.15 83.3424 13.1033 83.5891 13.01C83.8357 12.92 84.0541 12.7917 84.2441 12.625V13.135C84.2507 13.5983 84.1307 13.9483 83.8841 14.185C83.6407 14.425 83.2957 14.545 82.8491 14.545C82.6091 14.545 82.3807 14.4917 82.1641 14.385C81.9474 14.2783 81.7807 14.11 81.6641 13.88L80.6991 14.37C80.9191 14.7533 81.2224 15.045 81.6091 15.245C81.9957 15.4483 82.4057 15.55 82.8391 15.55C83.4691 15.55 83.9957 15.4183 84.4191 15.155C84.8424 14.895 85.1107 14.4917 85.2241 13.945C85.2507 13.8183 85.2691 13.6883 85.2791 13.555C85.2891 13.425 85.2941 13.2883 85.2941 13.145V7.6H84.3691V8.085C84.1757 7.885 83.9457 7.73 83.6791 7.62C83.4124 7.50667 83.1124 7.45 82.7791 7.45C82.2724 7.45 81.8341 7.575 81.4641 7.825C81.0974 8.07167 80.8141 8.41 80.6141 8.84C80.4141 9.26667 80.3141 9.75167 80.3141 10.295C80.3141 10.835 80.4124 11.32 80.6091 11.75C80.8091 12.18 81.0924 12.5217 81.4591 12.775C81.8257 13.025 82.2591 13.15 82.7591 13.15ZM82.9041 12.205C82.5707 12.205 82.2941 12.12 82.0741 11.95C81.8541 11.78 81.6907 11.5517 81.5841 11.265C81.4774 10.975 81.4241 10.6517 81.4241 10.295C81.4241 9.94167 81.4774 9.62167 81.5841 9.335C81.6941 9.04833 81.8607 8.82 82.0841 8.65C82.3074 8.48 82.5924 8.395 82.9391 8.395C83.4324 8.395 83.7941 8.57167 84.0241 8.925C84.2541 9.27833 84.3691 9.735 84.3691 10.295C84.3691 10.855 84.2541 11.3133 84.0241 11.67C83.7941 12.0267 83.4207 12.205 82.9041 12.205Z" fill="#00A46C"/>
</svg>
