<svg width="16" height="16" viewBox="0 0 16 16" fill="none" xmlns="http://www.w3.org/2000/svg">
<path d="M13.2807 13.281H11.0582V9.80032C11.0582 8.97031 11.0434 7.90184 9.90224 7.90184C8.74467 7.90184 8.56756 8.80616 8.56756 9.73989V13.2808H6.34502V6.12306H8.47865V7.10124H8.50852C8.72205 6.73614 9.0306 6.43579 9.40131 6.23218C9.77203 6.02857 10.191 5.92933 10.6137 5.94502C12.8663 5.94502 13.2816 7.42676 13.2816 9.35441L13.2807 13.281ZM3.83727 5.14465C3.58218 5.1447 3.33279 5.06909 3.12067 4.92741C2.90854 4.78572 2.74321 4.58431 2.64554 4.34864C2.54788 4.11298 2.52229 3.85365 2.57201 3.60344C2.62173 3.35323 2.74453 3.12339 2.92488 2.94298C3.10522 2.76256 3.33501 2.63968 3.58519 2.58986C3.83537 2.54005 4.0947 2.56555 4.33039 2.66313C4.56608 2.76071 4.76754 2.92599 4.9093 3.13807C5.05106 3.35015 5.12675 3.59951 5.1268 3.85461C5.12683 4.02399 5.09349 4.19172 5.02871 4.34822C4.96392 4.50471 4.86895 4.64692 4.74921 4.76671C4.62946 4.8865 4.48729 4.98153 4.33082 5.04638C4.17435 5.11123 4.00664 5.14462 3.83727 5.14465ZM4.94853 13.281H2.72369V6.12306H4.94853V13.281ZM14.3887 0.501022H1.60687C1.31676 0.497748 1.0372 0.60979 0.82965 0.812526C0.622101 1.01526 0.503541 1.29211 0.5 1.58223V14.4176C0.503419 14.7078 0.621911 14.9848 0.829452 15.1878C1.03699 15.3907 1.31661 15.503 1.60687 15.4999H14.3887C14.6796 15.5036 14.96 15.3916 15.1683 15.1887C15.3767 14.9857 15.496 14.7084 15.5 14.4176V1.5813C15.4959 1.29061 15.3765 1.01345 15.1681 0.810715C14.9597 0.607983 14.6794 0.496262 14.3887 0.500096" fill="#0A66C2"/>
</svg>
