<svg width="16" height="16" viewBox="0 0 16 16" fill="none" xmlns="http://www.w3.org/2000/svg">
<path fill-rule="evenodd" clip-rule="evenodd" d="M7.99174 0.5C9.97903 0.500856 11.8443 1.27434 13.247 2.67806C14.6496 4.08188 15.4217 5.9479 15.421 7.9325C15.4193 12.0272 12.0862 15.3594 7.99174 15.3594H7.9917H7.98855C6.74525 15.3589 5.52349 15.047 4.43839 14.4553L0.5 15.488L1.55399 11.6395C0.903911 10.5132 0.561896 9.23544 0.562374 7.92648C0.564013 3.83154 3.89662 0.5 7.99174 0.5ZM7.98936 14.1052H7.99177C11.3952 14.1052 14.1652 11.3359 14.1666 7.93217C14.1671 6.28266 13.5256 4.73166 12.3597 3.56494C11.1938 2.39821 9.64352 1.75529 7.99411 1.7546C4.58802 1.7546 1.81809 4.52357 1.81673 7.92715C1.81626 9.09349 2.14261 10.2294 2.76077 11.2123L2.90775 11.4458L2.28377 13.7236L4.6209 13.1109L4.84648 13.2446C5.7944 13.8071 6.88115 14.1046 7.98936 14.1052Z" fill="#E0E0E0"/>
<path d="M0.841064 15.0613L1.84691 11.3886C1.22637 10.3138 0.900037 9.0943 0.900428 7.84537C0.902055 3.93757 4.08246 0.758301 7.99018 0.758301C9.88679 0.759157 11.6669 1.49726 13.0052 2.8369C14.3439 4.17653 15.0807 5.95718 15.0799 7.85091C15.0783 11.7588 11.8977 14.9384 7.99046 14.9384C7.99018 14.9384 7.99066 14.9384 7.99046 14.9384H7.9873C6.8008 14.938 5.63495 14.6401 4.59948 14.0758L0.841064 15.0613H0.841064Z" fill="url(#paint0_linear_4683_8047)"/>
<path fill-rule="evenodd" clip-rule="evenodd" d="M6.15574 4.77351C6.01829 4.46792 5.87358 4.46181 5.74281 4.45646C5.63585 4.45187 5.5134 4.45215 5.39115 4.45215C5.2688 4.45215 5.06999 4.49813 4.90185 4.68175C4.73362 4.86537 4.25952 5.30927 4.25952 6.21207C4.25952 7.11497 4.91715 7.98738 5.00881 8.10991C5.10057 8.23226 6.27828 10.1442 8.14343 10.8797C9.69354 11.491 10.009 11.3694 10.3454 11.3388C10.6819 11.3082 11.4311 10.895 11.584 10.4665C11.737 10.038 11.737 9.67082 11.6911 9.59406C11.6452 9.51759 11.5229 9.47171 11.3393 9.37994C11.1558 9.28818 10.2537 8.84419 10.0854 8.78302C9.91722 8.72184 9.79487 8.69125 9.67252 8.87497C9.55017 9.0585 9.1987 9.47171 9.09164 9.59406C8.98458 9.71669 8.87753 9.73198 8.69401 9.64022C8.51048 9.54818 7.91947 9.35461 7.21836 8.72948C6.67286 8.24314 6.30456 7.64248 6.19751 7.45877C6.09045 7.27525 6.18603 7.17584 6.27809 7.08436C6.36048 7.00215 6.46161 6.87015 6.55337 6.763C6.64494 6.65584 6.67553 6.57937 6.7367 6.45703C6.79787 6.33448 6.76729 6.22734 6.72141 6.13558C6.67553 6.04382 6.3189 5.13635 6.15574 4.77351Z" fill="white"/>
<path fill-rule="evenodd" clip-rule="evenodd" d="M7.99145 0.501465C9.95591 0.502334 11.7997 1.26692 13.1864 2.65453C14.5729 4.04224 15.3361 5.88683 15.3355 7.84861C15.3337 11.8964 12.0389 15.1902 7.99145 15.1902H7.99141H7.98829C6.75926 15.1898 5.55154 14.8815 4.47888 14.2965L0.585693 15.3174L1.62757 11.5131C0.984955 10.3997 0.646868 9.13664 0.647345 7.84269C0.648972 3.79476 3.94332 0.501465 7.99145 0.501465ZM7.98908 13.9505H7.99146C11.3558 13.9505 14.094 11.2129 14.0954 7.84834C14.0959 6.21775 13.4617 4.68457 12.3092 3.53123C11.1567 2.3779 9.62426 1.74235 7.99376 1.74168C4.62677 1.74168 1.88863 4.47886 1.8873 7.84337C1.88682 8.99631 2.20942 10.1192 2.82049 11.0908L2.96578 11.3216L2.34897 13.5733L4.65926 12.9676L4.88227 13.0998C5.81929 13.6558 6.89358 13.9499 7.98908 13.9505Z" fill="white"/>
<defs>
<linearGradient id="paint0_linear_4683_8047" x1="15.0799" y1="15.0613" x2="15.0799" y2="0.758325" gradientUnits="userSpaceOnUse">
<stop stop-color="#20B038"/>
<stop offset="1" stop-color="#60D66A"/>
</linearGradient>
</defs>
</svg>
