<svg width="60" height="50" viewBox="0 0 60 50" fill="none" xmlns="http://www.w3.org/2000/svg">
<rect x="6" y="1" width="48" height="48" rx="4" fill="white"/>
<path d="M19 31C19 28.75 22 28.75 23.5 27.25C24.25 26.5 22 26.5 22 22.75C22 20.2503 22.9997 19 25 19C27.0003 19 28 20.2503 28 22.75C28 26.5 25.75 26.5 26.5 27.25C28 28.75 31 28.75 31 31" stroke="#080930" stroke-width="2" stroke-linecap="round"/>
<path d="M29.9948 29.2431C30.5618 28.8523 31.2978 28.571 32.0021 28.2318C32.5528 27.9665 33.0841 27.6659 33.5 27.25C34.25 26.5 32 26.5 32 22.75C32 20.2503 32.9998 19 35 19C37.0003 19 38 20.2503 38 22.75C38 26.5 35.75 26.5 36.5 27.25C38 28.75 41 28.75 41 31" stroke="#080930" stroke-width="2" stroke-linecap="round"/>
</svg>
