<svg width="16" height="16" viewBox="0 0 16 16" fill="none" xmlns="http://www.w3.org/2000/svg">
<rect width="16" height="16" rx="4" fill="#FF715A"/>
<path d="M4.85119 11H5.95819V4.52H4.85119L3.63619 5.249V6.446L4.85119 5.7035V11ZM7.99248 10.991H12.452V9.9695H9.67098L11.3315 8.498C11.5775 8.282 11.783 8.0855 11.948 7.9085C12.116 7.7285 12.242 7.535 12.326 7.328C12.41 7.118 12.452 6.8585 12.452 6.5495C12.452 6.1265 12.356 5.753 12.164 5.429C11.975 5.102 11.717 4.847 11.39 4.664C11.063 4.478 10.691 4.385 10.274 4.385C9.82698 4.385 9.43248 4.4735 9.09048 4.6505C8.74848 4.8275 8.48148 5.0765 8.28948 5.3975C8.09748 5.7185 8.00148 6.095 8.00148 6.527H9.11748C9.11148 6.329 9.15648 6.1445 9.25248 5.9735C9.34848 5.8025 9.48198 5.666 9.65298 5.564C9.82698 5.459 10.0265 5.4065 10.2515 5.4065C10.5725 5.4065 10.8335 5.5145 11.0345 5.7305C11.2385 5.9435 11.3405 6.212 11.3405 6.536C11.3405 6.695 11.297 6.86 11.21 7.031C11.126 7.202 10.9775 7.3835 10.7645 7.5755L7.99248 10.046V10.991Z" fill="white"/>
</svg>
