<svg width="38" height="39" viewBox="0 0 38 39" fill="none" xmlns="http://www.w3.org/2000/svg">
<g clip-path="url(#clip0_4341_12422)">
<rect x="0.5" y="0.958984" width="37" height="37" rx="18.5" fill="#1F47F5" stroke="#EBEAED"/>
<path d="M10.9865 24.459H12.1685V18.543L14.9645 24.459H15.5345L18.3245 18.543V24.453H19.5125V15.819H18.3665L15.2525 22.317L12.1205 15.819H10.9865V24.459ZM21.1935 24.459H24.9135C25.7375 24.459 26.3735 24.229 26.8215 23.769C27.2735 23.309 27.4995 22.699 27.4995 21.939C27.4995 21.479 27.3855 21.069 27.1575 20.709C26.9295 20.349 26.6015 20.077 26.1735 19.893C26.4575 19.729 26.6815 19.495 26.8455 19.191C27.0095 18.887 27.0915 18.537 27.0915 18.141C27.0915 17.749 26.9975 17.377 26.8095 17.025C26.6215 16.669 26.3415 16.379 25.9695 16.155C25.6015 15.931 25.1415 15.819 24.5895 15.819H21.1935V24.459ZM22.4655 19.347V17.001H24.5715C24.9475 17.001 25.2475 17.109 25.4715 17.325C25.6955 17.541 25.8075 17.817 25.8075 18.153C25.8075 18.529 25.6875 18.823 25.4475 19.035C25.2115 19.243 24.9195 19.347 24.5715 19.347H22.4655ZM22.4655 23.265V20.529H24.7995C25.2315 20.529 25.5755 20.663 25.8315 20.931C26.0875 21.195 26.2155 21.523 26.2155 21.915C26.2155 22.335 26.0735 22.665 25.7895 22.905C25.5055 23.145 25.1495 23.265 24.7215 23.265H22.4655Z" fill="white"/>
</g>
<defs>
<clipPath id="clip0_4341_12422">
<rect width="38" height="38" fill="white" transform="translate(0 0.458984)"/>
</clipPath>
</defs>
</svg>
