<svg width="20" height="20" viewBox="0 0 20 20" fill="none" xmlns="http://www.w3.org/2000/svg">
<path d="M15 14.1665H5V12.4998H15V14.1665ZM15 10.8332H5V9.1665H15V10.8332ZM15 7.49984H5V5.83317H15V7.49984ZM2.5 18.3332L3.75 17.0832L5 18.3332L6.25 17.0832L7.5 18.3332L8.75 17.0832L10 18.3332L11.25 17.0832L12.5 18.3332L13.75 17.0832L15 18.3332L16.25 17.0832L17.5 18.3332V1.6665L16.25 2.9165L15 1.6665L13.75 2.9165L12.5 1.6665L11.25 2.9165L10 1.6665L8.75 2.9165L7.5 1.6665L6.25 2.9165L5 1.6665L3.75 2.9165L2.5 1.6665V18.3332Z" fill="#B6B4BA"/>
</svg>
